<svg width="32" height="32" viewBox="0 0 32 32" fill="none" xmlns="http://www.w3.org/2000/svg">
<circle cx="16" cy="16" r="16" fill="#F7F7F7"/>
<path d="M23 12.75H22.18L20.48 7.485C20.3393 7.05087 20.0836 6.67573 19.7474 6.41019C19.4112 6.14465 19.0108 6.00149 18.6 6H17C16.45 6 16 6.50625 16 7.125C16 7.74375 16.45 8.25 17 8.25H18.6L20.06 12.75H15.25L14.89 11.625H14.98C15.53 11.625 15.98 11.1188 15.98 10.5C15.98 9.88125 15.53 9.375 14.98 9.375H12C11.45 9.375 11 9.88125 11 10.5C11 11.1188 11.45 11.625 12 11.625H12.75L14.57 17.25H13.9C13.46 14.7413 11.59 12.885 9.25 12.7613C6.45 12.6038 4 15.225 4 18.375C4 21.525 6.2 24 9 24C11.46 24 13.45 22.0988 13.9 19.5H18.1C18.54 22.0088 20.41 23.865 22.75 23.9888C25.55 24.135 28 21.525 28 18.3638C28 15.225 25.8 12.75 23 12.75ZM10 19.5H11.82C11.4 20.8838 10.22 21.84 8.8 21.7388C7.31 21.6375 6.07 20.22 6 18.5325C5.93 16.5638 7.27 15 9 15C10.33 15 11.42 15.9338 11.82 17.25H10C9.45 17.25 9 17.7563 9 18.375C9 18.9938 9.45 19.5 10 19.5ZM18.1 17.25H16.7L15.97 15H19C18.56 15.6525 18.24 16.4063 18.1 17.25ZM22.88 21.75C21.34 21.6825 20.04 20.2088 20 18.465C19.98 17.385 20.39 16.44 21.05 15.81L21.67 17.7225C21.86 18.3075 22.43 18.6113 22.95 18.3975C23.47 18.1838 23.74 17.5425 23.55 16.9575L22.92 15.0113L22.93 15C23.3309 14.9846 23.7305 15.0608 24.1045 15.224C24.4785 15.3871 24.8193 15.6339 25.1062 15.9493C25.3932 16.2647 25.6203 16.6423 25.7739 17.0592C25.9275 17.4761 26.0044 17.9237 26 18.375C26 20.31 24.62 21.8175 22.88 21.75Z" fill="url(#paint0_linear_77_2083)"/>
<defs>
<linearGradient id="paint0_linear_77_2083" x1="16" y1="6" x2="16" y2="24" gradientUnits="userSpaceOnUse">
<stop stop-color="#FFB60D"/>
<stop offset="1" stop-color="#E59317"/>
</linearGradient>
</defs>
</svg>
